<svg id="Layer_2" data-name="Layer 2" xmlns="http://www.w3.org/2000/svg" xmlns:xlink="http://www.w3.org/1999/xlink" viewBox="0 0 400 300" width="406" height="306" class="illustration styles_illustrationTablet__1DWOa"><defs><linearGradient id="linear-gradient" x1="138.4" y1="214.41" x2="243.7" y2="145.66" gradientUnits="userSpaceOnUse"><stop offset="0" stop-color="#ddd"></stop><stop offset="0.99" stop-color="#999"></stop></linearGradient></defs><title>aaa</title><path d="M196.69,279.77l149.75-84a7.16,7.16,0,0,0,.27-12.32L201.54,93.46a7.16,7.16,0,0,0-7.36-.11L35.77,185.29a7.16,7.16,0,0,0,0,12.38l141.25,82A19.84,19.84,0,0,0,196.69,279.77Z" fill="#fc9956"></path><polygon points="303.45 156.6 133.83 254.53 70.16 217.5 241.64 118.31 303.45 156.6" fill="#ddd"></polygon><path d="M208,148.29l-97.81,60.13,34.16,20L237,174.43a4.42,4.42,0,0,0,.16-7.54Z" fill="url(#linear-gradient)"></path><path d="M206.24,160.63s-4.2,10.06.83,14.54a47.45,47.45,0,0,0,7.71,4s-5.23-3-4.11-9.08a28.93,28.93,0,0,1,5.2-11.16" fill="#3e4359"></path><ellipse cx="221.31" cy="164.75" rx="15.87" ry="9.89" transform="translate(-26.62 285.8) rotate(-62.69)" fill="#16171c"></ellipse><ellipse cx="221.31" cy="166.33" rx="7.93" ry="4.94" transform="translate(-28.02 286.65) rotate(-62.69)" fill="#deebf1"></ellipse><path d="M157.11,130.6a22.67,22.67,0,0,0-2.94,5.72,10.55,10.55,0,0,0-11.48,7.16c-3.34,8.64-3.63,22.67,1.18,32.88l2.55-3.24s7.43,2.68,8.57,5.09S158,194.82,158,194.82s10.82,7.89,23,6,24.68-22.09,25.81-22.88,32-18.78,34.37-21.19c5.91-6.07-.69-16.89-6.58-20.37-9-5.35-19.77-3.74-29.62-2.33-6.81,1-16.71,2-21.82,7.19a7.4,7.4,0,0,0-1,1.18,49.77,49.77,0,0,0-7,18.66l-5.88,3s4.73-12-4.15-22.14l4-6.21" fill="#68e1fd"></path><path d="M203.22,176.39l-4.68-2.88s-8.52,1.32-13.32-2.64-4.08-7.08-4.08-7.08l-5.88-2.74-5.88,3c-1.07,7.25-1.47,15.43.57,22.53.94,3.26,2.61,6.51,5.75,7.93,3.92,1.78,8.77.06,12.07-2.27C193.85,187.95,198.38,182,203.22,176.39Z" fill="#2e2e75" opacity="0.56"></path><path d="M132.91,201.73s-4.2,10.06.83,14.54a23,23,0,0,0,7.68,4s-5.2-3-4.08-9.07a28.93,28.93,0,0,1,5.2-11.16" fill="#3e4359"></path><ellipse cx="147.98" cy="205.85" rx="15.87" ry="9.89" transform="translate(-102.82 242.88) rotate(-62.69)" fill="#16171c"></ellipse><ellipse cx="147.98" cy="207.43" rx="7.93" ry="4.94" transform="translate(-104.23 243.74) rotate(-62.69)" fill="#deebf1"></ellipse><path d="M206.84,177.92s-1-16.9,16-27.61c20.09-12.67,22.46,3.84,18.36,6.43C226.35,166.12,206.84,177.92,206.84,177.92Z" fill="#2e2e75" opacity="0.33"></path><path d="M173.41,164a25.27,25.27,0,0,1-4.38,3.53c-1.77.93-3.7,4-2.78,6.73s12.2-3.2,14.39-5.13c0,0,.42-5.13-.5-6.65S173.41,164,173.41,164Z" fill="#131218"></path><path d="M187.95,175.78s-6.93,10.28-3.87,14.4,9.42-7.9,9.72-9.24a39.09,39.09,0,0,0,0-6Z" fill="#131218"></path><path d="M205.32,121.12s4.65-4,11.32-.41,8.43,3.94,8.8,9-.25,7-3.4,9.17-7.67,3.53-15.22,9.32c0,0-5.78,3.77-8.43,1.76" fill="#414044"></path><path d="M224.64,126.23c-2.7,4-7.31,6.25-11.49,8.41s-8.34,4.64-12.69,6.69l-2.06,8.59c2.64,2,8.43-1.76,8.43-1.76,7.55-5.79,12.07-7.17,15.22-9.32s3.77-4.14,3.4-9.17A9,9,0,0,0,224.64,126.23Z" fill="#131218"></path><path d="M187.95,120.71C187.46,121,164.28,132,162,137.3s10.47,25.55,10.47,25.55a6.3,6.3,0,0,0,9-1.49s-2.9-14.73-4.19-17l10.63-4.67a60.1,60.1,0,0,0-2.42,13.37c-.32,6.76,2.42,22.71,2.42,22.71s4.67,2.42,7.25,0,5.64-29.58,5.64-29.58,7.82-7.82,9.24-12.82a20.16,20.16,0,0,0-.05-11.76Z" fill="#1e2128"></path><path d="M184.74,84.88a16.32,16.32,0,0,0-5.23,1.55c-2.84,1.66-8.11,7.42-10.6,15l8.35,4.5,4.23-6s4.69,18.94,6.06,21.1,20.25,1.12,22.45.59c0,0,1.25-24.52-8.44-34.13C197.14,83.11,184.74,84.88,184.74,84.88Z" fill="#c45e31"></path><path d="M169.51,101.76a40.06,40.06,0,0,1-4.54,4.57c-2.19,1.8-12.29,8.88-12.29,8.88s4.33,4.43,5,4,10.91-5.82,14-8.69c2.28-2.15,4-3.68,5.09-4.9C174.26,104.14,172,103.22,169.51,101.76Z" fill="#fcd1c0"></path><path d="M181,194c-7.56-6.6-12.06-20.49-11-30.24l-.57.29s4.73-12-4.15-22.14l4-6.21-12.09-5.08a22.67,22.67,0,0,0-2.94,5.72,10.55,10.55,0,0,0-11.48,7.16c-3.34,8.64-3.63,22.67,1.18,32.88l2.55-3.24s7.43,2.68,8.57,5.09,3.05,16.61,3.05,16.61,10.82,7.89,23,6a17.71,17.71,0,0,0,6.05-2.31A44.43,44.43,0,0,1,181,194Z" fill="#68e1fd"></path><path d="M156.51,177.17a25.65,25.65,0,0,0-8.76-4.81c-4.72-1.29-17.52,22.75-17.52,25.92s2.59,7,9.11,5.84a73.26,73.26,0,0,0,13.22-6.87A17.22,17.22,0,0,1,163.63,194Z" fill="#68e1fd"></path><path d="M156.51,177.17l-.32-.27a76.44,76.44,0,0,0-10.56,14,48.13,48.13,0,0,0-4.69,12.54,69.28,69.28,0,0,0,11.63-6.21A17.22,17.22,0,0,1,163.63,194Z" fill="#2e2e75" opacity="0.33"></path><ellipse cx="151.95" cy="163.05" rx="5.31" ry="7.02" transform="translate(-49.85 68.44) rotate(-21.9)" fill="#31333f"></ellipse><ellipse cx="151.49" cy="163.23" rx="3.71" ry="4.9" transform="translate(-49.95 68.28) rotate(-21.9)" fill="#deebf1"></ellipse><path d="M178.59,136.61l-28.41-17.89s-2.4-.72-3.24,1.23,0,2.79,0,2.79l35.15,21.17a3.36,3.36,0,0,0,2.54-3.92Z" fill="#131218"></path><path d="M195,105.25c.11.55-2,11.46-3.52,14.57s-9.84,11.43-11,12-5.1,1.44-5.66,2.89-1.55,3.44,0,5.66,4.44,2.33,5.1,1.55.22-2,.89-2.53,2.74-.35,4.09-1.46a15.8,15.8,0,0,1,1-2.41c.44-.7,5.33-3,14.2-12.62,0,0,4.11-8.69,5-16.45Z" fill="#fcd1c0"></path><path d="M155.64,113a22.64,22.64,0,0,1-3,2.2c-1.11.55-5.1,1.44-5.66,2.89s-1.55,3.44,0,5.66,4.44,2.33,5.1,1.55.22-2,.89-2.53,2.74-.35,4.09-1.46a15.81,15.81,0,0,1,1-2.41,36.93,36.93,0,0,1,3.18-2.39C159.22,115.43,157.63,114.27,155.64,113Z" fill="#fcd1c0"></path><path d="M158.56,122.35a4.94,4.94,0,0,0-4.18,3.11c-1.25,3-.44,3.65.71,4.8s14.06,8.27,14.06,8.27,2.31,1.33,4.45-1.6.89-5.84-.44-6.34S158.56,122.35,158.56,122.35Z" fill="#68e1fd"></path><path d="M158.56,122.35a4.94,4.94,0,0,0-4.18,3.11c-1.25,3-.44,3.65.71,4.8s14.06,8.27,14.06,8.27,2.31,1.33,4.45-1.6.89-5.84-.44-6.34S158.56,122.35,158.56,122.35Z" fill="#2e2e75" opacity="0.33"></path><path d="M194.31,81.57l1.3,4.67s-1.26,1.64-6.53,1.52l-1.18-4.92Z" fill="#f9b7ab"></path><path d="M183.06,77.29c-.43.33.84,11.41,5,10.39s7.27-6.47,7.5-7.61S190.58,71.5,183.06,77.29Z" fill="#fcd1c0"></path><path d="M181.09,74.23s-3.72,5.14-.81,6.59c4.89,2.45,9.89-.26,12.62-3" fill="#68e1fd"></path><path d="M186.74,67.25a8.52,8.52,0,0,0-3.94,1.86,7.2,7.2,0,0,0-1.88,2.74c-.59,1.51-.42,2.93-.63,4.48,0,0-.33,2.44,5.74,2.9s4.55,1.19,5.87,3,3.49,1.19,5-.73a10.83,10.83,0,0,0,2-8.91c-.74-3.15-3.44-4.9-6.48-5.4A15.8,15.8,0,0,0,186.74,67.25Z" fill="#68e1fd"></path><path d="M186.74,67.25a8.52,8.52,0,0,0-3.94,1.86,7.2,7.2,0,0,0-1.88,2.74c-.59,1.51-.42,2.93-.63,4.48,0,0-.33,2.44,5.74,2.9s4.55,1.19,5.87,3,3.49,1.19,5-.73a10.83,10.83,0,0,0,2-8.91c-.74-3.15-3.44-4.9-6.48-5.4A15.8,15.8,0,0,0,186.74,67.25Z" fill="#2e2e75" opacity="0.33"></path><path d="M55.19,172.73c3.16,3.6-.13,6.4.07,12.08a4.37,4.37,0,0,0,.26,1.35,22,22,0,0,0,10,4.24c.09-4.38,7.65-7.64,7.33-12.74-.33-5.31-7.49-2.42-4.88-8.33s1.68-13.41-2.5-16.18c-3.1-2.05-6.62-6.6-8.24-8.81,0,.63,0,1.27,0,1.9.32,3.46-1.13,7.28-2.9,10-1.65,2.54-4,4.67-5.34,7.42a8.2,8.2,0,0,0-.35.88C47.41,169.29,52.46,169.63,55.19,172.73Z" fill="#cec300"></path><path d="M58.56,162.16c.66,3,3,5.32,4.13,8.14,1.44,3.47-.1,6.73-.7,10.19-.63,3.64.78,6.72,2.58,9.74l.7.14a23.9,23.9,0,0,1-2.39-4.72,10.49,10.49,0,0,1-.26-5.62c.63-3.09,1.89-6.13.81-9.28-1-2.9-3.31-5.16-4.2-8.11-1.07-3.57,1-7.13.29-10.73a17.06,17.06,0,0,0-2.21-5l-.1-.17q0,.47-.07.94a15.6,15.6,0,0,1,1.79,4C59.77,155.18,57.8,158.65,58.56,162.16Z" fill="#2e6300"></path><path d="M88.34,165.29c3.34-1.39,6.68-6.2,4.25-9.09s-1.82-7.14-1.82-7.14a5.48,5.48,0,0,1-2.89,3c-6.83,2.36-7.44,6.3-7.59,9.33s3.49,9.57-7.44,13.06c-10.16,3.25-3,14.9-2,16.51a46.11,46.11,0,0,0,6.6-.34,58.67,58.67,0,0,1,7.35-3.27c6.53-2.43,4.1-8.2,1.22-11.54S85,166.68,88.34,165.29Z" fill="#cfe217"></path><path d="M90.56,149.84c-1.7,2.52-2,5.57-2.88,8.43-.91,3.11-2.91,5.48-4.51,8.23a13,13,0,0,0-1.61,4.09c-.31,1.58-.33,3.19-.49,4.79a12.42,12.42,0,0,1-1.49,5,30,30,0,0,1-3,4,18,18,0,0,0-3.83,6.46l.55,0a18.34,18.34,0,0,1,3.84-6.29C79,182.34,80.84,180,81.38,177c.59-3.29.27-6.58,1.9-9.63,1.37-2.56,3.36-4.76,4.42-7.49C88.94,156.67,89,153,91,150.11,91.21,149.82,90.75,149.56,90.56,149.84Z" fill="#2e6300"></path><path d="M70.14,190.91a15.08,15.08,0,0,1,2.7-13.24c3.34-4.2,5.32-8.11,3-12.59a18.36,18.36,0,0,1-2-8.73c-3.34,6.83-6.68,9.27-5.94,13s-.13,5.39-2.45,11.16c-1.64,4.08,0,8.09,1.12,10.09C67.79,190.75,69,190.86,70.14,190.91Z" fill="#9abc0c"></path><path d="M68.23,190.78l.6,0c-1.36-3.88-1.86-8,.12-11.83,1-2,2.43-3.84,3.39-5.9a12.21,12.21,0,0,0,.85-6.75,22.08,22.08,0,0,1,1-9.45c.11-.32-.4-.46-.51-.14a21.63,21.63,0,0,0-1.16,8.1c.08,1.46.35,2.91.29,4.37a9.81,9.81,0,0,1-1.06,3.85c-1,2.13-2.5,4-3.52,6.15a12.85,12.85,0,0,0-1.09,7.26A21.36,21.36,0,0,0,68.23,190.78Z" fill="#2e6300"></path><path d="M302.4,175.42c3.16,3.6-.13,6.4.07,12.08a4.37,4.37,0,0,0,.26,1.35,22,22,0,0,0,10,4.24c.09-4.38,7.65-7.64,7.33-12.74-.33-5.31-7.49-2.42-4.88-8.33s1.68-13.41-2.5-16.18c-3.1-2.05-6.62-6.6-8.24-8.81,0,.63,0,1.27,0,1.9.32,3.46-1.13,7.28-2.9,10-1.65,2.54-4,4.67-5.34,7.42a8.2,8.2,0,0,0-.35.88C294.62,172,299.67,172.31,302.4,175.42Z" fill="#cec300"></path><path d="M305.77,164.84c.66,3,3,5.32,4.13,8.14,1.44,3.47-.1,6.73-.7,10.19-.63,3.64.78,6.72,2.58,9.74l.7.14a23.9,23.9,0,0,1-2.39-4.72,10.49,10.49,0,0,1-.26-5.62c.63-3.09,1.89-6.13.81-9.28-1-2.9-3.31-5.16-4.2-8.11-1.07-3.57,1-7.13.29-10.73a17.06,17.06,0,0,0-2.21-5l-.1-.17q0,.47-.07.94a15.6,15.6,0,0,1,1.79,4C307,157.87,305,161.34,305.77,164.84Z" fill="#2e6300"></path><path d="M335.55,168c3.34-1.39,6.68-6.2,4.25-9.09s-1.82-7.14-1.82-7.14a5.48,5.48,0,0,1-2.89,3c-6.83,2.36-7.44,6.3-7.59,9.33s3.49,9.57-7.44,13.06c-10.16,3.25-3,14.9-2,16.51a46.11,46.11,0,0,0,6.6-.34,58.67,58.67,0,0,1,7.35-3.27c6.53-2.43,4.1-8.2,1.22-11.54S332.21,169.36,335.55,168Z" fill="#cfe217"></path><path d="M337.77,152.53c-1.7,2.52-2,5.57-2.88,8.43-.91,3.11-2.91,5.48-4.51,8.23a13,13,0,0,0-1.61,4.09c-.31,1.58-.33,3.19-.49,4.79a12.42,12.42,0,0,1-1.49,5,30,30,0,0,1-3,4,18,18,0,0,0-3.83,6.46l.55,0a18.34,18.34,0,0,1,3.84-6.29c1.88-2.29,3.68-4.63,4.22-7.61.59-3.29.27-6.58,1.9-9.63,1.37-2.56,3.36-4.76,4.42-7.49,1.25-3.22,1.34-6.85,3.32-9.78C338.42,152.51,338,152.24,337.77,152.53Z" fill="#2e6300"></path><path d="M317.35,193.6a15.08,15.08,0,0,1,2.7-13.24c3.34-4.2,5.32-8.11,3-12.59a18.36,18.36,0,0,1-2-8.73c-3.34,6.83-6.68,9.27-5.94,13s-.13,5.39-2.45,11.16c-1.64,4.08,0,8.09,1.12,10.09C315,193.44,316.18,193.55,317.35,193.6Z" fill="#9abc0c"></path><path d="M315.44,193.47l.6,0c-1.36-3.88-1.86-8,.12-11.83,1-2,2.43-3.84,3.39-5.9a12.21,12.21,0,0,0,.85-6.75,22.08,22.08,0,0,1,1-9.45c.11-.32-.4-.46-.51-.14a21.63,21.63,0,0,0-1.16,8.1c.08,1.46.35,2.91.29,4.37a9.81,9.81,0,0,1-1.06,3.85c-1,2.13-2.5,4-3.52,6.15a12.85,12.85,0,0,0-1.09,7.26A21.36,21.36,0,0,0,315.44,193.47Z" fill="#2e6300"></path><path d="M295.71,201.19a4.73,4.73,0,0,0,4.9-4.52q0-.12,0-.24c0-5.53-5.77-10-12.89-10s-12.89,4.49-12.89,10v0a4.68,4.68,0,0,0,4.75,4.51C285,201,290.34,201,295.71,201.19Z" fill="#38383f"></path><path d="M282.8,203s12.4,1.65,17-3.89-17,0-17,0" fill="#38383f"></path><path d="M265.62,204.37s1,2.53,10,2.81,9.62-5.27,9.62-5.27" fill="#515154"></path><path d="M281.28,205.56a3.82,3.82,0,0,0,4-3.65q0-.1,0-.2c0-4.47-4.66-8.09-10.41-8.09s-10.41,3.62-10.41,8.09v0a3.78,3.78,0,0,0,3.83,3.64C272.6,205.4,276.94,205.43,281.28,205.56Z" fill="#515154"></path><path d="M293,187.29a12.19,12.19,0,0,1-.87,13.83c1.2,0,2.41,0,3.61.07a4.73,4.73,0,0,0,4.9-4.52q0-.12,0-.24C300.62,192.35,297.48,188.85,293,187.29Z" fill="#26262b"></path><path d="M294.29,196.83a14.2,14.2,0,0,1-.81,2.1,10.8,10.8,0,0,1-3.39,4.12c3.56-.33,7.54-1.33,9.75-4S298.58,196.32,294.29,196.83Z" fill="#26262b"></path><path d="M277.2,202.92a9.89,9.89,0,0,1-4.94,4c1,.12,2.08.21,3.36.25,9,.28,9.62-5.27,9.62-5.27Z" fill="#26262b"></path><path d="M278.4,194.12a9.63,9.63,0,0,1-.54,7.64,10.64,10.64,0,0,1-2.92,3.67q3.17,0,6.34.12a3.82,3.82,0,0,0,4-3.65q0-.1,0-.2C285.24,198.22,282.39,195.25,278.4,194.12Z" fill="#26262b"></path><ellipse cx="240.82" cy="220.03" rx="6.96" ry="3.84" fill="#c45e31"></ellipse><ellipse cx="190.73" cy="266.11" rx="4.87" ry="2.4" fill="#c45e31"></ellipse><ellipse cx="205.27" cy="240.09" rx="13.4" ry="5.45" fill="#c45e31"></ellipse><ellipse cx="117.32" cy="159.7" rx="7.61" ry="3.35" fill="#c45e31"></ellipse></svg>